<svg id="wave" style="transform:rotate(0deg); transition: 0.3s" viewBox="0 0 1440 290" version="1.1" xmlns="http://www.w3.org/2000/svg"><defs><linearGradient id="sw-gradient-0" x1="0" x2="0" y1="1" y2="0"><stop stop-color="rgba(213.748, 231.101, 255, 1)" offset="0%"></stop><stop stop-color="rgba(78.401, 170.639, 255, 1)" offset="100%"></stop></linearGradient></defs><path style="transform:translate(0, 0px); opacity:1" fill="url(#sw-gradient-0)" d="M0,261L60,236.8C120,213,240,164,360,149.8C480,135,600,155,720,145C840,135,960,97,1080,111.2C1200,126,1320,193,1440,198.2C1560,203,1680,145,1800,145C1920,145,2040,203,2160,203C2280,203,2400,145,2520,145C2640,145,2760,203,2880,203C3000,203,3120,145,3240,111.2C3360,77,3480,68,3600,72.5C3720,77,3840,97,3960,111.2C4080,126,4200,135,4320,125.7C4440,116,4560,87,4680,91.8C4800,97,4920,135,5040,135.3C5160,135,5280,97,5400,96.7C5520,97,5640,135,5760,154.7C5880,174,6000,174,6120,174C6240,174,6360,174,6480,183.7C6600,193,6720,213,6840,222.3C6960,232,7080,232,7200,212.7C7320,193,7440,155,7560,135.3C7680,116,7800,116,7920,106.3C8040,97,8160,77,8280,87C8400,97,8520,135,8580,154.7L8640,174L8640,290L8580,290C8520,290,8400,290,8280,290C8160,290,8040,290,7920,290C7800,290,7680,290,7560,290C7440,290,7320,290,7200,290C7080,290,6960,290,6840,290C6720,290,6600,290,6480,290C6360,290,6240,290,6120,290C6000,290,5880,290,5760,290C5640,290,5520,290,5400,290C5280,290,5160,290,5040,290C4920,290,4800,290,4680,290C4560,290,4440,290,4320,290C4200,290,4080,290,3960,290C3840,290,3720,290,3600,290C3480,290,3360,290,3240,290C3120,290,3000,290,2880,290C2760,290,2640,290,2520,290C2400,290,2280,290,2160,290C2040,290,1920,290,1800,290C1680,290,1560,290,1440,290C1320,290,1200,290,1080,290C960,290,840,290,720,290C600,290,480,290,360,290C240,290,120,290,60,290L0,290Z"></path><defs><linearGradient id="sw-gradient-1" x1="0" x2="0" y1="1" y2="0"><stop stop-color="rgba(62, 132.009, 243, 1)" offset="0%"></stop><stop stop-color="rgba(11, 80.577, 255, 1)" offset="100%"></stop></linearGradient></defs><path style="transform:translate(0, 50px); opacity:0.9" fill="url(#sw-gradient-1)" d="M0,87L60,82.2C120,77,240,68,360,82.2C480,97,600,135,720,130.5C840,126,960,77,1080,77.3C1200,77,1320,126,1440,154.7C1560,184,1680,193,1800,188.5C1920,184,2040,164,2160,140.2C2280,116,2400,87,2520,72.5C2640,58,2760,58,2880,72.5C3000,87,3120,116,3240,120.8C3360,126,3480,106,3600,125.7C3720,145,3840,203,3960,203C4080,203,4200,145,4320,135.3C4440,126,4560,164,4680,188.5C4800,213,4920,222,5040,217.5C5160,213,5280,193,5400,183.7C5520,174,5640,174,5760,183.7C5880,193,6000,213,6120,217.5C6240,222,6360,213,6480,193.3C6600,174,6720,145,6840,135.3C6960,126,7080,135,7200,125.7C7320,116,7440,87,7560,96.7C7680,106,7800,155,7920,149.8C8040,145,8160,87,8280,62.8C8400,39,8520,48,8580,53.2L8640,58L8640,290L8580,290C8520,290,8400,290,8280,290C8160,290,8040,290,7920,290C7800,290,7680,290,7560,290C7440,290,7320,290,7200,290C7080,290,6960,290,6840,290C6720,290,6600,290,6480,290C6360,290,6240,290,6120,290C6000,290,5880,290,5760,290C5640,290,5520,290,5400,290C5280,290,5160,290,5040,290C4920,290,4800,290,4680,290C4560,290,4440,290,4320,290C4200,290,4080,290,3960,290C3840,290,3720,290,3600,290C3480,290,3360,290,3240,290C3120,290,3000,290,2880,290C2760,290,2640,290,2520,290C2400,290,2280,290,2160,290C2040,290,1920,290,1800,290C1680,290,1560,290,1440,290C1320,290,1200,290,1080,290C960,290,840,290,720,290C600,290,480,290,360,290C240,290,120,290,60,290L0,290Z"></path><defs><linearGradient id="sw-gradient-2" x1="0" x2="0" y1="1" y2="0"><stop stop-color="rgba(45.278, 0, 203.004, 1)" offset="0%"></stop><stop stop-color="rgba(11, 80.576, 255, 1)" offset="100%"></stop></linearGradient></defs><path style="transform:translate(0, 100px); opacity:0.8" fill="url(#sw-gradient-2)" d="M0,261L60,236.8C120,213,240,164,360,149.8C480,135,600,155,720,140.2C840,126,960,77,1080,82.2C1200,87,1320,145,1440,145C1560,145,1680,87,1800,91.8C1920,97,2040,164,2160,178.8C2280,193,2400,155,2520,135.3C2640,116,2760,116,2880,120.8C3000,126,3120,135,3240,130.5C3360,126,3480,106,3600,106.3C3720,106,3840,126,3960,140.2C4080,155,4200,164,4320,149.8C4440,135,4560,97,4680,72.5C4800,48,4920,39,5040,48.3C5160,58,5280,87,5400,111.2C5520,135,5640,155,5760,145C5880,135,6000,97,6120,72.5C6240,48,6360,39,6480,67.7C6600,97,6720,164,6840,203C6960,242,7080,251,7200,212.7C7320,174,7440,87,7560,87C7680,87,7800,174,7920,178.8C8040,184,8160,106,8280,106.3C8400,106,8520,184,8580,222.3L8640,261L8640,290L8580,290C8520,290,8400,290,8280,290C8160,290,8040,290,7920,290C7800,290,7680,290,7560,290C7440,290,7320,290,7200,290C7080,290,6960,290,6840,290C6720,290,6600,290,6480,290C6360,290,6240,290,6120,290C6000,290,5880,290,5760,290C5640,290,5520,290,5400,290C5280,290,5160,290,5040,290C4920,290,4800,290,4680,290C4560,290,4440,290,4320,290C4200,290,4080,290,3960,290C3840,290,3720,290,3600,290C3480,290,3360,290,3240,290C3120,290,3000,290,2880,290C2760,290,2640,290,2520,290C2400,290,2280,290,2160,290C2040,290,1920,290,1800,290C1680,290,1560,290,1440,290C1320,290,1200,290,1080,290C960,290,840,290,720,290C600,290,480,290,360,290C240,290,120,290,60,290L0,290Z"></path></svg>